<svg xmlns="http://www.w3.org/2000/svg" viewBox="0 0 64 64">
  <defs>
    <linearGradient id="g" x1="0" y1="0" x2="1" y2="1">
      <stop offset="0%" stop-color="#4361ee"/>
      <stop offset="100%" stop-color="#7209b7"/>
    </linearGradient>
  </defs>
  <rect width="64" height="64" rx="12" fill="url(#g)"/>
  <g fill="#fff" opacity="0.95" transform="translate(10,10)">
    <path d="M22 0c-6.6 0-12 5.4-12 12s5.4 12 12 12 12-5.4 12-12S28.6 0 22 0zm0 20a8 8 0 1 1 0-16 8 8 0 0 1 0 16z"/>
    <path d="M44 36c0-8.8-13.2-12-22-12S0 27.2 0 36v6h44v-6z"/>
  </g>
</svg>
